<?xml version="1.0" encoding="UTF-8"?>
<svg id="Layer_2" data-name="Layer 2" xmlns="http://www.w3.org/2000/svg" viewBox="0 0 472.13 635.31">
  <defs>
    <style>
      .cls-1 {
        fill: #ed1c24;
      }

      .cls-2 {
        stroke-width: 4px;
      }

      .cls-2, .cls-3 {
        fill: #58595b;
        stroke: #000;
        stroke-miterlimit: 10;
      }

      .cls-4 {
        fill: #231f20;
        fill-rule: evenodd;
      }

      .cls-3 {
        stroke-width: 3px;
      }
    </style>
  </defs>
  <g id="Reno_Fitness_Lab" data-name="Reno Fitness Lab">
    <g>
      <g>
        <g>
          <path class="cls-4" d="m160.63,87.09l18.75,4.18c-14.98,49.22-30.09,39.95-37.31,59.65l14.2-64.8,4.37.97Z"/>
          <path class="cls-4" d="m317.28,118.73l17.92,3.99-14.59,63.96-57.5-12.57c1.22-1.33.03-6.28,1.37-6.72,5.84-1.9,7.18-9.52,11.85-7.92,22.67,7.8,29.29-22.68,39.68-41.03l1.27.28Z"/>
          <path class="cls-4" d="m116.59.23l38.65,8.61c5.82,1.3,9.37,7.76,7.9,14.36l-41.54,186.52c-1.47,6.6-7.43,10.93-13.25,9.64l-38.64-8.61c-5.81-1.3-9.37-7.75-7.9-14.35L103.34,9.87c1.47-6.6,7.43-10.94,13.25-9.64h0Z"/>
          <path class="cls-4" d="m367.86,55.9l38.65,8.61c5.82,1.3,9.37,7.76,7.9,14.35l-41.53,186.52c-1.47,6.59-7.43,10.94-13.25,9.64l-38.65-8.61c-5.81-1.29-9.37-7.75-7.9-14.35l41.53-186.52c1.47-6.6,7.43-10.94,13.25-9.64h0Z"/>
          <path class="cls-4" d="m58.73,21.18l25.64,5.71c4.07.91,6.56,5.43,5.53,10.05l-29.09,130.64c-1.03,4.62-5.21,7.66-9.28,6.75l-25.64-5.71c-4.07-.91-6.56-5.43-5.54-10.05L49.45,27.93c1.03-4.62,5.2-7.66,9.28-6.75h0Z"/>
          <path class="cls-4" d="m424.71,100.98l25.64,5.71c4.08.91,6.57,5.43,5.54,10.05l-29.09,130.64c-1.03,4.62-5.21,7.66-9.28,6.75l-25.64-5.71c-4.07-.91-6.56-5.43-5.53-10.05l29.09-130.64c1.03-4.62,5.2-7.66,9.28-6.75h0Z"/>
          <path class="cls-4" d="m19.59,65.55l7.26,1.62c5.79,1.29,6.75,1.15,6.29,3.21l-9.79,43.96c-.5,2.25-1.85,1.4-7.06.24l-7.26-1.62c-9.34-2.08-.32-49.84,10.56-47.41h0Z"/>
          <path class="cls-4" d="m467.82,162.31l-7.89-1.69c-5.8-1.24-6.6-1.83-7.06.24l-9.79,43.96c-.5,2.25,1.07,2.09,6.29,3.21l7.89,1.69c9.35,2.01,21.45-45.08,10.56-47.41h0Z"/>
        </g>
        <g>
          <path class="cls-2" d="m221.46,150.21c3.85,5.68,10.69,6.57,15.07,5.63,5.19-.54,6.05-5.12,6.22-7.93.18-3.01.63-6.11,1.07-9.1.37-2.57.75-6.7.95-9.06-9.45,4.91-18.06,9.66-25.62,10.86-.22,4.69.81,7.37,2.32,9.6Z"/>
          <path class="cls-2" d="m287.2,101.71c-1.62,4.57-3.15,9.73-4.63,14.72-.41,1.38-.81,2.74-1.21,4.07-1.84,6.14-2.71,12.89-3.55,19.42-.29,2.24-.58,4.47-.9,6.66-.05.37-.12.75-.19,1.14-.49,2.72-.65,4.32,1.74,5.68,2.22,1.26,5.18,1.58,7.87.72,10.04-3.19,11.84-12.11,13.45-16.12,1.63-4.06,3.74-7.75,5.78-11.32,3-5.23,4.31-10.19,5.33-15.72.18-1.02.27-3.37.32-4.92.02-.51.03-.97.05-1.32l2.15-10.44,1.1,10.08c.45,1.64.88,3.02,1.27,4.23.62,1.96.95,2.04,1.11,3.51l18.39,4.22c-.99-7.27-10.38-17.17-15.44-27.36-1.58-2.62-3.05-4.74-4.31-6.19-2.12-2.06-8.38-3.87-11.37-4.26-.29-.04-10.14-4.56-16.05,18.98-.37,1.47-.58,2.86-.85,4.04l-.05.18Z"/>
          <path class="cls-3" d="m175.2,84.35c-1.58-2.95-2.15-6.28-2.41-10.13l-.09-1.28c-2.13,3.65-4.23,7.37-5.28,9.46.87.21,1.95.48,3.27.82,1.42.36,3.01.77,4.52,1.13Z"/>
          <path class="cls-2" d="m177.46,76.07c1.92,3.5,5.03,10.85,7.94,13.24,2.99-.88,5.72-1.19,8.3-1.16,4.02.05,7.64.93,11.2,1.8,3.1.76,6.3,1.53,9.75,1.74-.41-5.85-2.6-23.45-3.5-25.29-3.7-7.56-9.8-12.34-16.32-12.79-6.11-.44-11.82,2.93-16.16,9.42-.71,1.05-2.54,4.08-4.57,7.52l1.73,2.64c.41.63.95,1.62,1.64,2.87Z"/>
          <path class="cls-2" d="m251.49,127.41c-.64,5.53-1.88,17.45-2.89,23.99-.78,6.1,1.71,10.3,6.82,11.48,5.18,1.2,12.03-2.87,13.91-8.39,1.67-4.87,1.92-10.75,2.18-16.98.31-7.27,2.28-14.76,4.76-22.16,2.03-6.07,3.61-11.19,5.15-17.89.58-2.9,1.84-6.5,3.17-10.3,1.63-4.66,3.32-9.49,3.69-12.94.26-2.38-.66-4.84-2.72-7.3-4.28-5.12-13.82-8.58-19.05-8.99-4.75.53-7.47,3.94-7.87,9.87-.35,5.38-1.08,10.64-1.85,16.2-.37,2.7-.75,5.45-1.1,8.3-.02.17-.12.81-.25,1.64-.19,1.18-.55,5.06-.69,6.1,1.05,1.31,4.46,10.44.46,18.15-.75,1.46-2.61,3.26-3.13,4.06-1.08,1.64-.36,3.07-.6,5.16Z"/>
          <path class="cls-2" d="m221.04,87.25c.09,1.11.17,3.91.28,5.16.54,0,2.58.02,3.1.03,10.78.13,19.62,1.2,24.58,3.34.25-2.82.8-8.1,1.31-11.6.51-3.44,1.32-12.86,1.32-12.86,1.94-14.45-6.74-19.04-14.66-20.16-7.06-.99-16.42.05-17.86,9.81-.42,2.84-.36,9.03.25,12.44,1,5.59,1.32,9.42,1.69,13.85Z"/>
          <g>
            <path class="cls-2" d="m159.37,514.06h91.28c4.74,0,8.59,3.85,8.59,8.59v1.29c0,4.74-3.85,8.59-8.59,8.59h-91.28c-4.74,0-8.59-3.85-8.59-8.59v-1.29c0-4.74,3.85-8.59,8.59-8.59Z" transform="translate(-147.28 85.4) rotate(-17.42)"/>
            <rect class="cls-2" x="52.24" y="422.4" width="108.46" height="18.47" rx="8.59" ry="8.59" transform="translate(-337.99 441.54) rotate(-77.42)"/>
            <path class="cls-2" d="m318.67,567.42l-25.77-24.16,28.04-125.63,34.42-10.8c4.51-1.41,7.04-6.26,5.63-10.77l-.39-1.23c-1.41-4.51-6.26-7.04-10.77-5.63l-34.42,10.8-62.15-57.11,4.23-18.94h.02s20.16-90.35,20.16-90.35c11.84-3.32,24-9.09,29.06-19.1,6.49-12.84,9.76-17.85,11.64-22.36-18.11-3.45-38.1-7.94-56.71-12.72-6.03,19.48-20.17,30.51-28.06,35.35l-2.24-.5c2.47-2.62,5.56-5.9,6.37-6.86,7.58-8.97,17.89-21.17,19.79-38.34-5.18-1.14-11.44-3.22-14.2-7.97-10.87,4.65-18.92.4-23.61-2.36-1.22,3.3-4.19,7.4-8.06,9.08l-2.39,1.04s2.2-7.21,2.64-9.62c.64-3.55,1.3-7.22.94-11.61-.07-.79-.14-1.52-.22-2.22-.41.35-13.63,10.34-31.3,5.4-4.78-1.34-6.88-4.86-6.88-4.86l4.58.64c4.14.79,10.03.51,15.77-.76,4.17-.93,11.32-3.95,13.17-6.78-14.27-2.52-19.06-16.51-19.06-16.51,0,0,17.17,18.37,38.15,8.42,15.66-5.73,23.76-15.33,23.62-21.83-.11-4.98-4.91-7.54-8.92-8.81-2.12-.68-7.48-.82-13.67-.99-9.27-.25-20.82-.56-29.15-2.82-13.9-3.78-17.87,5.68-22.89,17.65-2.38,5.67-4.85,11.54-8.66,16.1-2.32,2.78-5.11,5.3-7.81,7.74-3.09,2.79-6.01,5.43-8.23,8.38-1.86,3.46-2.31,6.95-1.37,10.67,1.79,7.08,7.32,15.94,16.01,25.62,5.03,5.86,6.28,9.24,9.29,17.42l.9,2.44c1.24,3.35,7.43,9.14,11.6,9.19.05,0,.11,0,.17,0,.02,0,.05,0,.07,0l-8.68,38.88-9.35,41.9-2.53,11.33-4.21,18.88-79.06,24.81-26.84-25.17c-3.45-3.23-8.91-3.06-12.15.39l-.88.94c-3.23,3.45-3.06,8.91.39,12.15l25.77,24.16-28.04,125.63-34.42,10.8c-4.51,1.41-7.04,6.26-5.63,10.77l.39,1.23c1.41,4.51,6.26,7.04,10.77,5.63l34.42-10.8,93.55,85.97-7.44,33.33c-1.03,4.61,1.9,9.23,6.51,10.26l1.26.28c4.61,1.03,9.23-1.9,10.26-6.51l7.44-33.33,119.65-37.54,26.84,25.17c3.45,3.23,8.91,3.06,12.15-.39l.88-.94c3.23-3.45,3.06-8.91-.39-12.15Zm-18.73-143.2l-23.19,103.9-2.02,9.03-11.51,3.61-109.07,34.22-93.05-85.51,27.52-123.34,69.81-21.91-8.34,37.39-.23,1.05.07.02c-.4,4.24,2.42,8.24,6.68,9.19l1.26.28c4.17.93,8.33-1.39,9.85-5.25.02-.1.03-.19.05-.29l10.88-48.73.15-.05,3.45-15.44c.12-.54.29-1.05.5-1.53,1.75-3.38,5.62-5.33,9.5-4.46l1.26.28c4.61,1.03,7.54,5.65,6.51,10.26l-14.21,63.69s0,.03-.01.04h.02s-23.13,103.66-23.13,103.66c-1.03,4.61,1.9,9.23,6.51,10.26l1.26.28c4.61,1.03,9.23-1.9,10.26-6.51l16.15-72.39s.01-.07.02-.11l7.78-34.86c1.03-4.61,5.65-7.54,10.26-6.51l1.26.28c4.61,1.03,7.54,5.65,6.51,10.26l-.83,3.7h0s-12.92,57.89-12.92,57.89c-1.03,4.61,1.9,9.23,6.51,10.26l1.26.28c4.61,1.03,9.23-1.9,10.26-6.51l12.92-57.89,6.96-31.2,1.6-7.19,53.79,49.43-2.32,10.41Z"/>
          </g>
        </g>
      </g>
      <g>
        <path class="cls-1" d="m195.61,261.9l4.33-21.03,10.83,2.23c2.01.41,3.51.9,4.5,1.46.99.56,1.72,1.38,2.17,2.44.46,1.07.55,2.27.27,3.61-.24,1.17-.7,2.12-1.37,2.87-.67.74-1.5,1.29-2.48,1.64-.62.22-1.44.34-2.45.36.72.42,1.23.79,1.53,1.12.2.22.47.66.81,1.32.34.66.55,1.16.64,1.49l1.89,6.74-7.34-1.51-2.15-7.14c-.27-.92-.55-1.54-.84-1.86-.4-.42-.9-.69-1.49-.82l-.57-.12-1.76,8.54-6.53-1.34Zm9.1-11.17l2.74.56c.3.06.89.08,1.78.07.45,0,.84-.14,1.19-.44.35-.3.57-.68.66-1.14.14-.68.03-1.24-.32-1.7-.36-.45-1.13-.8-2.31-1.04l-2.86-.59-.88,4.28Z"/>
        <path class="cls-1" d="m222.74,245.55l16.07,3.31-.93,4.52-9.54-1.96-.76,3.67,8.15,1.68-.87,4.25-8.15-1.68-1.77,8.59-6.53-1.34,4.33-21.03Z"/>
        <path class="cls-1" d="m242.31,249.58l6.5,1.34-3.26,15.85,10.14,2.09-1.07,5.18-16.64-3.42,4.33-21.03Z"/>
      </g>
    </g>
  </g>
</svg>