<?xml version="1.0" encoding="UTF-8"?>
<svg id="Layer_2" data-name="Layer 2" xmlns="http://www.w3.org/2000/svg" viewBox="0 0 564.11 730.88">
  <defs>
    <style>
      .cls-1 {
        fill: #231f20;
      }

      .cls-2 {
        stroke-width: 4px;
      }

      .cls-2, .cls-3 {
        fill: #ed2024;
        stroke: #000;
        stroke-miterlimit: 10;
      }

      .cls-4 {
        fill: #414042;
        fill-rule: evenodd;
      }

      .cls-3 {
        stroke-width: 3px;
      }
    </style>
  </defs>
  <g id="Layer_8" data-name="Layer 8">
    <g>
      <g>
        <g>
          <path class="cls-4" d="m178.61,89.94h22.86c-4.64,61.03-24.59,54.18-27.87,78.93l-.31-78.93h5.33Z"/>
          <path class="cls-4" d="m368.73,86.07h21.85s-.37,78.05-.37,78.05l-70.03.3c1.07-1.86-1.59-7.3-.15-8.15,6.29-3.72,5.87-12.92,11.71-12.27,28.35,3.19,28.14-33.92,35.45-57.93h1.55Z"/>
          <path class="cls-4" d="m104.95.48l47.11-.02c7.09,0,12.9,6.58,12.9,14.62l.1,227.37c0,8.04-5.8,14.62-12.89,14.63h-47.11c-7.09.01-12.9-6.56-12.9-14.61l-.1-227.37c0-8.05,5.79-14.63,12.88-14.63h0Z"/>
          <path class="cls-4" d="m411.18.01h47.11c7.09-.01,12.89,6.57,12.9,14.61l.1,227.37c0,8.04-5.8,14.63-12.88,14.63h-47.11c-7.09.01-12.89-6.56-12.9-14.61l-.1-227.37c0-8.04,5.79-14.62,12.88-14.63h0Z"/>
          <path class="cls-4" d="m43.2,39.8h31.25c4.96-.01,9.03,4.6,9.03,10.23l.07,159.25c0,5.63-4.06,10.25-9.03,10.25h-31.25c-4.96,0-9.03-4.6-9.03-10.23l-.07-159.25c0-5.63,4.06-10.24,9.03-10.24h0Z"/>
          <path class="cls-4" d="m488.89,37.62h31.25c4.97,0,9.03,4.6,9.03,10.23l.07,159.25c0,5.63-4.06,10.24-9.02,10.24h-31.25c-4.96.01-9.03-4.6-9.03-10.23l-.07-159.25c0-5.63,4.06-10.25,9.02-10.25h0Z"/>
          <path class="cls-4" d="m9.24,101.47h8.86c7.06,0,8.13-.42,8.13,2.1l.03,53.59c0,2.74-1.79,2.1-8.13,2.11h-8.85c-11.38,0-13.28-57.79-.03-57.79h0Z"/>
          <path class="cls-4" d="m554.85,97.68l-9.6.08c-7.06.06-8.13-.41-8.13,2.11l.03,53.59c0,2.74,1.79,2.15,8.13,2.1l9.6-.08c11.38-.09,13.23-57.91-.03-57.8h0Z"/>
        </g>
        <g>
          <path class="cls-2" d="m265.62,147.47c5.95,5.59,14.12,4.86,18.95,2.63,5.89-1.97,5.7-7.51,5.17-10.82-.57-3.54-.85-7.26-1.12-10.85-.23-3.08-.86-7.97-1.25-10.76-9.7,8.15-18.47,15.89-26.94,19.25.95,5.5,2.85,8.35,5.18,10.55Z"/>
          <path class="cls-2" d="m329.39,74.1c-.7,5.73-1.14,12.12-1.56,18.29-.12,1.71-.23,3.39-.35,5.04-.55,7.6.2,15.67.91,23.47.25,2.68.49,5.34.69,7.97.03.44.05.91.07,1.38.13,3.28.36,5.18,3.49,6.14,2.91.89,6.43.49,9.33-1.2,10.83-6.31,10.61-17.13,11.44-22.2.84-5.13,2.34-9.97,3.78-14.64,2.12-6.85,2.37-12.95,2.11-19.64-.05-1.23-.56-3.98-.9-5.8-.11-.6-.21-1.14-.28-1.55l-.21-12.68,3.89,11.42c.94,1.78,1.81,3.28,2.56,4.58,1.23,2.11,1.63,2.13,2.2,3.79l22.45.13c-3.03-8.18-16.51-17.25-25.02-27.77-2.52-2.64-4.77-4.71-6.61-6.07-3-1.84-10.73-2.33-14.31-2.01-.35.03-12.95-2.67-13.72,26.2-.05,1.8.07,3.47.06,4.92v.22Z"/>
          <path class="cls-3" d="m194.82,82.98c-2.6-3.02-4.12-6.74-5.43-11.14l-.43-1.46c-1.52,4.79-3,9.65-3.69,12.35,1.07.02,2.39.06,4.01.11,1.74.05,3.7.12,5.54.14Z"/>
          <path class="cls-2" d="m195.3,72.78c3.14,3.56,8.65,11.3,12.65,13.32,3.24-1.8,6.34-2.87,9.34-3.5,4.68-.99,9.12-.9,13.47-.82,3.8.07,7.71.15,11.78-.5-2-6.69-9.1-26.56-10.62-28.46-6.25-7.83-14.58-11.79-22.27-10.62-7.21,1.07-12.96,6.47-16.32,15.13-.55,1.4-1.9,5.39-3.36,9.92l2.69,2.62c.64.62,1.52,1.63,2.64,2.9Z"/>
          <path class="cls-2" d="m294.57,113.21c.69,6.59,2.34,20.75,2.86,28.61.68,7.28,4.65,11.52,10.89,11.57,6.33.05,13.22-6.45,13.98-13.35.67-6.08-.56-12.98-1.86-20.28-1.52-8.52-1.17-17.73-.22-26.96.79-7.58,1.29-13.93,1.35-22.11-.07-3.52.46-8.02,1.02-12.79.69-5.84,1.39-11.88.93-15.98-.32-2.83-2.02-5.45-5.05-7.77-6.3-4.83-18.27-6.38-24.45-5.5-5.38,1.85-7.65,6.51-6.58,13.5.98,6.34,1.5,12.63,2.05,19.29.27,3.23.54,6.52.87,9.92.02.21.07.97.13,1.96.09,1.42.67,6.02.78,7.27,1.56,1.25,7.88,10.97,5.24,20.96-.5,1.89-2.19,4.46-2.59,5.52-.83,2.19.38,3.66.64,6.15Z"/>
          <path class="cls-2" d="m248.81,74.46c.39,1.26,1.21,4.5,1.66,5.92.62-.14,3-.64,3.6-.77,12.55-2.64,23.09-3.69,29.41-2.49-.45-3.34-1.17-9.61-1.48-13.81-.3-4.12-1.8-15.27-1.8-15.27-1.49-17.29-12.76-20.37-22.25-19.61-8.45.67-19.05,4.31-18.2,16.02.25,3.41,1.92,10.58,3.52,14.38,2.61,6.23,3.97,10.59,5.55,15.64Z"/>
          <g>
            <path class="cls-2" d="m288.89,574h108.61c5.64,0,10.22,4.58,10.22,10.22v1.53c0,5.64-4.58,10.22-10.22,10.22h-108.61c-5.64,0-10.22-4.58-10.22-10.22v-1.53c0-5.64,4.58-10.22,10.22-10.22Z" transform="translate(-246.54 250.01) rotate(-30)"/>
            <rect class="cls-2" x="194.02" y="439.56" width="21.98" height="129.06" rx="10.22" ry="10.22"/>
            <rect class="cls-2" x="242.72" y="462.61" width="21.98" height="62.95" rx="10.22" ry="10.22"/>
            <path class="cls-2" d="m486.62,606.77l-36.18-21.38v-153.16l37.17-21.46c4.87-2.81,6.55-9.1,3.74-13.97l-.77-1.33c-2.81-4.87-9.1-6.55-13.97-3.74l-37.17,21.46-86.97-50.21v-23.09h.03v-110.16c12.89-6.93,25.52-16.78,28.8-29.71,4.21-16.59,6.71-23.26,7.72-28.98-21.93.68-46.31.66-69.15-.08-1.95,24.19-15.52,40.66-23.42,48.33h-2.73c2.2-3.68,4.93-8.29,5.62-9.62,6.48-12.38,15.29-29.22,13.04-49.66-6.31.02-14.12-.77-18.56-5.57-11.42,8.22-21.87,5.37-28.03,3.37-.57,4.15-2.95,9.68-7.01,12.64l-2.5,1.82s.69-8.94.57-11.85c-.18-4.29-.36-8.72-1.92-13.73-.28-.9-.56-1.73-.83-2.52-.39.51-13.15,15.54-34.95,14.38-5.89-.31-9.25-3.86-9.25-3.86l5.49-.44c5.01-.16,11.78-2.01,18.11-4.96,4.6-2.16,12.13-7.52,13.54-11.29-17.23.77-26.41-14.23-26.41-14.23,0,0,24.69,16.89,46.49-.11,16.7-10.72,23.62-23.96,21.78-31.47-1.41-5.75-7.66-7.48-12.65-7.92-2.64-.23-8.9.99-16.14,2.4-10.83,2.11-24.32,4.75-34.58,4.28-17.13-.78-19.28,11.23-22.01,26.43-1.3,7.21-2.64,14.66-5.89,20.94-1.98,3.83-4.56,7.48-7.06,11.01-2.87,4.05-5.58,7.87-7.38,11.86-1.26,4.5-.88,8.67,1.17,12.75,3.91,7.75,12.63,16.61,25.23,25.61,7.36,5.5,9.68,9.11,15.3,17.83l1.68,2.6c2.31,3.57,11,8.69,15.85,7.67.06-.01.13-.03.2-.04.03,0,.05,0,.08-.01v135.31l-85.39,49.3-37.69-22.27c-4.84-2.86-11.14-1.24-14,3.6l-.78,1.32c-2.86,4.84-1.24,11.14,3.6,14l36.18,21.38v153.16l-37.17,21.46c-4.87,2.81-6.55,9.1-3.74,13.97l.77,1.33c2.81,4.87,9.1,6.55,13.97,3.74l37.17-21.46,130.92,75.59v40.63c0,5.62,4.6,10.22,10.22,10.22h1.53c5.62,0,10.22-4.6,10.22-10.22v-40.63l129.22-74.6,37.69,22.27c4.84,2.86,11.14,1.24,14-3.6l.78-1.32c2.86-4.84,1.24-11.14-3.6-14Zm-58.86-161.44v137.67l-12.43,7.18-117.79,68.01-130.22-75.18v-150.36l75.4-43.53v46.86h.09c.63,5.02,4.94,8.95,10.13,8.95h1.53c5.09,0,9.32-3.77,10.08-8.65,0-.12-.02-.23-.02-.35v-59.41l.16-.09v-18.82c0-.65.07-1.29.19-1.91,1.15-4.38,5.15-7.64,9.88-7.64h1.53c5.62,0,10.22,4.6,10.22,10.22v77.65s0,.03,0,.05h.03v126.37c0,5.62,4.6,10.22,10.22,10.22h1.53c5.62,0,10.22-4.6,10.22-10.22v-88.25s0-.09,0-.13v-42.5c0-5.62,4.6-10.22,10.22-10.22h1.53c5.62,0,10.22,4.6,10.22,10.22v4.51h0v70.58c0,5.62,4.6,10.22,10.22,10.22h1.53c5.62,0,10.22-4.6,10.22-10.22v-117.37l75.28,43.46v12.69Z"/>
          </g>
        </g>
      </g>
      <g>
        <path class="cls-1" d="m261.48,276.62v-26.83h13.82c2.56,0,4.52.22,5.88.66s2.45,1.25,3.28,2.44c.83,1.19,1.24,2.64,1.24,4.35,0,1.49-.32,2.77-.95,3.85-.64,1.08-1.51,1.96-2.62,2.63-.71.43-1.68.78-2.91,1.06.99.33,1.71.66,2.16.99.3.22.75.69,1.33,1.41.58.72.97,1.28,1.16,1.67l4.02,7.78h-9.37l-4.43-8.2c-.56-1.06-1.06-1.75-1.5-2.07-.6-.41-1.28-.62-2.03-.62h-.73v10.89h-8.33Zm8.33-15.96h3.5c.38,0,1.11-.12,2.2-.37.55-.11,1-.39,1.35-.84.35-.45.52-.97.52-1.56,0-.87-.27-1.53-.82-2-.55-.46-1.58-.7-3.09-.7h-3.64v5.45Z"/>
        <path class="cls-1" d="m290.57,249.78h20.5v5.77h-12.17v4.69h10.4v5.42h-10.4v10.96h-8.33v-26.83Z"/>
        <path class="cls-1" d="m315.54,249.78h8.29v20.23h12.94v6.61h-21.23v-26.83Z"/>
      </g>
    </g>
  </g>
</svg>